<svg width="34" height="34" viewBox="0 0 34 34" fill="none" xmlns="http://www.w3.org/2000/svg">
<path d="M27.6067 6.3934C30.321 9.10787 32 12.8579 32 17C32 25.2843 25.2843 32 17 32C12.8579 32 9.10787 30.321 6.3934 27.6067M27.6067 6.3934C24.8922 3.67893 21.1422 2 17 2C8.71573 2 2 8.71573 2 17C2 21.1422 3.67893 24.8922 6.3934 27.6067M27.6067 6.3934L6.3934 27.6067L27.6067 6.3934Z" fill="#181818"/>
<path d="M27.6067 6.3934C30.321 9.10787 32 12.8579 32 17C32 25.2843 25.2843 32 17 32C12.8579 32 9.10787 30.321 6.3934 27.6067M27.6067 6.3934C24.8922 3.67893 21.1422 2 17 2C8.71573 2 2 8.71573 2 17C2 21.1422 3.67893 24.8922 6.3934 27.6067M27.6067 6.3934L6.3934 27.6067" stroke="white" stroke-width="3.33333" stroke-linecap="round" stroke-linejoin="round"/>
</svg>
