<svg width="32" height="33" viewBox="0 0 32 33" fill="none" xmlns="http://www.w3.org/2000/svg">
<path d="M22.9603 23.4425V4.70087C22.9603 4.06356 22.4213 3.54688 21.7564 3.54688H18.2685L12.8311 8.75869C12.3609 9.20933 11.5987 9.20946 11.1285 8.75869C10.6584 8.30805 10.6584 7.57741 11.1285 7.12676L14.8633 3.54694H2.20393C1.53904 3.54694 1 4.06362 1 4.70093V23.4425C1 24.0798 1.53904 24.5965 2.20393 24.5965H21.7564C22.4213 24.5964 22.9603 24.0798 22.9603 23.4425Z" fill="#D3D3D3" stroke="#D3D3D3" stroke-width="0.08499"/>
<path d="M29.7958 11.2532H24.9665C24.5232 11.2532 24.1639 11.5976 24.1639 12.0225V23.4425C24.1639 24.7172 23.0858 25.7505 21.7561 25.7505H9.84192C9.39865 25.7505 9.03931 26.0949 9.03931 26.5198V31.1488C9.03931 31.7861 9.57835 32.3027 10.2432 32.3027H29.7957C30.4606 32.3027 30.9996 31.7861 30.9996 31.1488V12.4072C30.9997 11.7699 30.4607 11.2532 29.7958 11.2532Z" fill="#D3D3D3" stroke="#D3D3D3" stroke-width="0.08499"/>
<path d="M19.12 1.09848C18.6499 0.647837 17.8876 0.647837 17.4174 1.09848L14.8633 3.54668H18.2684L19.12 2.73041C19.5901 2.27983 19.5901 1.54912 19.12 1.09848Z" fill="#D3D3D3" stroke="#D3D3D3" stroke-width="0.08499"/>
<path d="M11.7657 13.2606C11.8159 13.2606 11.841 13.2313 11.8536 13.1853C11.9833 12.4863 11.9749 12.4696 12.7032 12.3315C12.7534 12.3231 12.7827 12.2938 12.7827 12.2436C12.7827 12.1934 12.7534 12.1641 12.7032 12.1557C11.9791 12.0092 12 11.9925 11.8536 11.3019C11.841 11.2559 11.8159 11.2266 11.7657 11.2266C11.7154 11.2266 11.6903 11.2559 11.6778 11.3019C11.5313 11.9925 11.5564 12.0092 10.8282 12.1557C10.7821 12.1641 10.7486 12.1934 10.7486 12.2436C10.7486 12.2938 10.7821 12.3231 10.8282 12.3315C11.5564 12.478 11.548 12.4863 11.6778 13.1853C11.6903 13.2313 11.7154 13.2606 11.7657 13.2606ZM9.74 16.1401C9.81952 16.1401 9.87393 16.0898 9.88229 16.0145C10.033 14.897 10.0706 14.897 11.2258 14.6752C11.3011 14.6627 11.3555 14.6125 11.3555 14.5329C11.3555 14.4576 11.3011 14.4032 11.2258 14.3906C10.0706 14.2316 10.0288 14.1939 9.88229 13.0555C9.87393 12.9802 9.81952 12.9258 9.74 12.9258C9.66466 12.9258 9.61025 12.9802 9.60188 13.0597C9.46377 14.1814 9.40516 14.1772 8.25841 14.3906C8.18307 14.4074 8.12866 14.4576 8.12866 14.5329C8.12866 14.6166 8.18307 14.6627 8.27514 14.6752C9.41354 14.8594 9.46377 14.8887 9.60188 16.0062C9.61025 16.0898 9.66466 16.1401 9.74 16.1401ZM12.5776 20.7732C12.6864 20.7732 12.7659 20.6937 12.7869 20.5807C13.084 18.2871 13.4063 17.9397 15.6747 17.6886C15.7919 17.6761 15.8714 17.5882 15.8714 17.4794C15.8714 17.3705 15.7919 17.2868 15.6747 17.2701C13.4063 17.019 13.084 16.6716 12.7869 14.3781C12.7659 14.2651 12.6864 14.1897 12.5776 14.1897C12.4688 14.1897 12.3893 14.2651 12.3725 14.3781C12.0754 16.6716 11.7489 17.019 9.48468 17.2701C9.36332 17.2868 9.2838 17.3705 9.2838 17.4794C9.2838 17.5882 9.36332 17.6761 9.48468 17.6886C11.7447 17.9858 12.0586 18.2913 12.3725 20.5807C12.3893 20.6937 12.4688 20.7732 12.5776 20.7732Z" fill="#343434"/>
</svg>
