<svg width="40" height="40" viewBox="0 0 40 40" fill="none" xmlns="http://www.w3.org/2000/svg">
<path d="M22.9074 34.9997C22.9074 35.644 23.4297 36.1663 24.0741 36.1663C24.7184 36.1663 25.2407 35.644 25.2407 34.9997H22.9074ZM25.2407 30.5552C25.2407 29.9108 24.7184 29.3885 24.0741 29.3885C23.4297 29.3885 22.9074 29.9108 22.9074 30.5552H25.2407ZM30.8332 16.6663V15.4997C30.6029 15.4997 30.3777 15.5679 30.1861 15.6956L30.8332 16.6663ZM25.8332 16.6663H26.9999C26.9999 16.022 26.4776 15.4997 25.8332 15.4997V16.6663ZM25.8332 19.9997H24.6666C24.6666 20.43 24.9034 20.8253 25.2827 21.0283C25.6621 21.2313 26.1224 21.209 26.4804 20.9703L25.8332 19.9997ZM18.1482 18.833C15.1106 18.833 12.6482 16.3706 12.6482 13.333H10.3148C10.3148 17.6593 13.8219 21.1663 18.1482 21.1663V18.833ZM12.6482 13.333C12.6482 10.2954 15.1106 7.83301 18.1482 7.83301V5.49967C13.8219 5.49967 10.3148 9.00679 10.3148 13.333H12.6482ZM18.1482 7.83301C21.1857 7.83301 23.6482 10.2954 23.6482 13.333H25.9816C25.9816 9.00679 22.4744 5.49967 18.1482 5.49967V7.83301ZM23.6482 13.333C23.6482 15.2266 22.6922 16.8973 21.2312 17.8885L22.5412 19.8193C24.6149 18.4125 25.9816 16.0326 25.9816 13.333H23.6482ZM21.2312 17.8885C20.3524 18.4847 19.2927 18.833 18.1482 18.833V21.1663C19.7744 21.1663 21.2879 20.6695 22.5412 19.8193L21.2312 17.8885ZM30.4257 34.9997V31.296H28.0924V34.9997H30.4257ZM21.1109 21.9812H16.146V24.3145H21.1109V21.9812ZM9.43314 16.9177L8.53579 13.777L6.29224 14.418L7.18959 17.5587L9.43314 16.9177ZM2.76667 15.3218L5.36607 25.7193L7.62974 25.1535L5.03034 14.7559L2.76667 15.3218ZM5.36607 25.7193C5.81267 27.5058 7.41774 28.759 9.2591 28.759V26.4257C8.48842 26.4257 7.81665 25.9012 7.62974 25.1535L5.36607 25.7193ZM5.6641 11.6108C3.7211 11.6108 2.29542 13.4368 2.76667 15.3218L5.03034 14.7559C4.92727 14.3436 5.2391 13.9442 5.6641 13.9442V11.6108ZM8.53579 13.777C8.16945 12.4948 6.99755 11.6108 5.6641 11.6108V13.9442C5.95577 13.9442 6.2121 14.1375 6.29224 14.418L8.53579 13.777ZM16.146 21.9812C13.0289 21.9812 10.2895 19.9148 9.43314 16.9177L7.18959 17.5587C8.33212 21.5575 11.9871 24.3145 16.146 24.3145V21.9812ZM30.4257 31.296C30.4257 26.1515 26.2554 21.9812 21.1109 21.9812V24.3145C24.9667 24.3145 28.0924 27.4402 28.0924 31.296H30.4257ZM25.2407 34.9997V30.5552H22.9074V34.9997H25.2407ZM24.1666 6.16634H32.4999V3.83301H24.1666V6.16634ZM34.6666 8.33301V13.333H36.9999V8.33301H34.6666ZM32.4999 15.4997H30.8332V17.833H32.4999V15.4997ZM25.8332 15.4997H23.3332V17.833H25.8332V15.4997ZM30.1861 15.6956L25.1861 19.029L26.4804 20.9703L31.4804 17.637L30.1861 15.6956ZM26.9999 19.9997V16.6663H24.6666V19.9997H26.9999ZM34.6666 13.333C34.6666 14.5296 33.6966 15.4997 32.4999 15.4997V17.833C34.9852 17.833 36.9999 15.8183 36.9999 13.333H34.6666ZM32.4999 6.16634C33.6966 6.16634 34.6666 7.13639 34.6666 8.33301H36.9999C36.9999 5.84772 34.9852 3.83301 32.4999 3.83301V6.16634ZM24.1666 3.83301C22.2784 3.83301 20.6646 4.99552 19.9964 6.63944L22.1581 7.51797C22.4811 6.72326 23.2602 6.16634 24.1666 6.16634V3.83301Z" fill="white"/>
<path d="M27.5001 11.6667C27.9603 11.6667 28.3334 11.2936 28.3334 10.8333C28.3334 10.3731 27.9603 10 27.5001 10C27.0398 10 26.6667 10.3731 26.6667 10.8333C26.6667 11.2936 27.0398 11.6667 27.5001 11.6667Z" fill="white"/>
<path d="M30.8333 11.6667C31.2936 11.6667 31.6667 11.2936 31.6667 10.8333C31.6667 10.3731 31.2936 10 30.8333 10C30.3731 10 30 10.3731 30 10.8333C30 11.2936 30.3731 11.6667 30.8333 11.6667Z" fill="white"/>
</svg>
