<svg width="45" height="44" viewBox="0 0 45 44" fill="none" xmlns="http://www.w3.org/2000/svg">
<path fill-rule="evenodd" clip-rule="evenodd" d="M27.0834 16.5C32.6523 16.5 37.1667 21.0145 37.1667 26.5833C37.1667 28.7054 36.5112 30.6744 35.3916 32.2988L40.5379 37.4451L37.9452 40.0379L32.7989 34.8915C31.1744 36.0111 29.2055 36.6667 27.0834 36.6667C21.5145 36.6667 17.0001 32.1522 17.0001 26.5833C17.0001 21.0145 21.5145 16.5 27.0834 16.5ZM27.0834 20.1667C23.5396 20.1667 20.6667 23.0395 20.6667 26.5833C20.6667 30.1272 23.5396 33 27.0834 33C30.6272 33 33.5001 30.1272 33.5001 26.5833C33.5001 23.0395 30.6272 20.1667 27.0834 20.1667ZM15.2015 25.6666C15.1785 25.9691 15.1667 26.2749 15.1667 26.5833C15.1667 27.5299 15.2771 28.4506 15.4857 29.3335L4.16675 29.3333V25.6667L15.2015 25.6666ZM11.5001 5.5V23.8333H6.00008V5.5H11.5001ZM18.8334 12.8333L18.8332 17.9844C17.2064 19.5457 16.0217 21.5641 15.4857 23.8332L13.3334 23.8333V12.8333H18.8334ZM26.1667 9.16667L26.1667 14.7014C24.1519 14.8547 22.2771 15.509 20.6667 16.54L20.6667 9.16667H26.1667ZM33.5001 11L33.5001 16.54C31.8897 15.509 30.015 14.8547 28.0002 14.7014L28.0001 11H33.5001Z" fill="white"/>
</svg>
