<svg width="40" height="40" viewBox="0 0 40 40" fill="none" xmlns="http://www.w3.org/2000/svg">
<path d="M30.6067 9.3934C33.321 12.1079 35 15.8579 35 20C35 28.2843 28.2843 35 20 35C15.8579 35 12.1079 33.321 9.3934 30.6067M30.6067 9.3934C27.8922 6.67893 24.1422 5 20 5C11.7157 5 5 11.7157 5 20C5 24.1422 6.67893 27.8922 9.3934 30.6067M30.6067 9.3934L9.3934 30.6067L30.6067 9.3934Z" fill="#181818"/>
<path d="M30.6067 9.3934C33.321 12.1079 35 15.8579 35 20C35 28.2843 28.2843 35 20 35C15.8579 35 12.1079 33.321 9.3934 30.6067M30.6067 9.3934C27.8922 6.67893 24.1422 5 20 5C11.7157 5 5 11.7157 5 20C5 24.1422 6.67893 27.8922 9.3934 30.6067M30.6067 9.3934L9.3934 30.6067" stroke="white" stroke-width="3.33333" stroke-linecap="round" stroke-linejoin="round"/>
</svg>
