<svg width="26" height="20" viewBox="0 0 26 20" fill="none" xmlns="http://www.w3.org/2000/svg">
<path fill-rule="evenodd" clip-rule="evenodd" d="M22.1667 0.666992C24.0997 0.666992 25.6667 2.234 25.6667 4.16699V15.8337C25.6667 17.7667 24.0997 19.3337 22.1667 19.3337H3.5C1.56701 19.3337 0 17.7667 0 15.8337V4.16699C0 2.234 1.56701 0.666992 3.5 0.666992H22.1667ZM21.295 3.00033H4.37171L12.1105 9.10981C12.5343 9.44452 13.1323 9.44452 13.5563 9.10981L21.295 3.00033ZM2.33333 4.36392V15.8337C2.33333 16.478 2.85567 17.0003 3.5 17.0003H22.1667C22.811 17.0003 23.3333 16.478 23.3333 15.8337V4.36395L15.002 10.9412C13.7305 11.9452 11.9362 11.9452 10.6646 10.9412L2.33333 4.36392Z" fill="white"/>
</svg>
