<?xml version="1.0" encoding="UTF-8"?>
<svg width="800px" height="800px" viewBox="0 0 24 24" fill="none" xmlns="http://www.w3.org/2000/svg">
<path d="M4 19V6.2C4 5.08 4 4.52 4.218 4.092C4.41 3.715 4.715 3.41 5.092 3.218C5.52 3 6.08 3 7.2 3H16.8C17.92 3 18.48 3 18.908 3.218C19.285 3.41 19.59 3.715 19.782 4.092C20 4.52 20 5.08 20 6.2V17H6C4.895 17 4 17.895 4 19ZM4 19C4 20.105 4.895 21 6 21H20" stroke="white" stroke-width="1.5" stroke-linecap="round" stroke-linejoin="round"/>
<path d="M8 7H16M8 11H16M8 15H13" stroke="white" stroke-width="1.5" stroke-linecap="round" stroke-linejoin="round"/>
</svg>
