<svg width="33" height="32" viewBox="0 0 33 32" fill="none" xmlns="http://www.w3.org/2000/svg">
<path fill-rule="evenodd" clip-rule="evenodd" d="M32.3334 16.0001C32.3334 24.7445 25.2445 31.8334 16.5001 31.8334C7.75557 31.8334 0.666748 24.7445 0.666748 16.0001C0.666748 7.25557 7.75557 0.166748 16.5001 0.166748C25.2445 0.166748 32.3334 7.25557 32.3334 16.0001ZM21.2501 11.2501C21.2501 13.8735 19.1235 16.0001 16.5001 16.0001C13.8767 16.0001 11.7501 13.8735 11.7501 11.2501C11.7501 8.62673 13.8767 6.50008 16.5001 6.50008C19.1235 6.50008 21.2501 8.62673 21.2501 11.2501ZM16.5001 29.4584C19.3247 29.4584 21.9463 28.5882 24.111 27.1011C25.0672 26.4444 25.4757 25.1932 24.9199 24.1751C23.7676 22.0647 21.3929 20.7501 16.4999 20.7501C11.6071 20.7501 9.23253 22.0646 8.08013 24.1751C7.52424 25.1932 7.93282 26.4442 8.88893 27.101C11.0537 28.588 13.6753 29.4584 16.5001 29.4584Z" fill="#D3D3D3"/>
</svg>
