<svg width="42" height="42" viewBox="0 0 42 42" fill="none" xmlns="http://www.w3.org/2000/svg">
<path fill-rule="evenodd" clip-rule="evenodd" d="M34.8052 10.2085C35.6125 8.30565 33.694 6.38712 31.7911 7.1944L8.40099 17.1175C6.44807 17.946 6.56386 20.7521 8.5784 21.4169L16.7671 24.1191C17.2937 24.2929 17.7067 24.706 17.8805 25.2326L20.5828 33.4212C21.2476 35.4358 24.0536 35.5516 24.8822 33.5986L34.8052 10.2085ZM30.4242 3.97236C35.2242 1.93601 40.0636 6.77546 38.0273 11.5754L28.1042 34.9656C26.0143 39.8918 18.936 39.5997 17.2591 34.5181L14.8331 27.1665L7.48158 24.7406C2.39993 23.0636 2.10786 15.9854 7.03407 13.8954L30.4242 3.97236Z" fill="#C56E34"/>
</svg>
